<svg xmlns="http://www.w3.org/2000/svg" viewBox="0 0 64 64" role="img" aria-label="Valentine heart icon">
  <defs>
    <linearGradient id="bg" x1="0" y1="0" x2="1" y2="1">
      <stop offset="0%" stop-color="#ff6f91" />
      <stop offset="100%" stop-color="#ff9671" />
    </linearGradient>
    <linearGradient id="heart" x1="0" y1="0" x2="1" y2="1">
      <stop offset="0%" stop-color="#fff6fa" />
      <stop offset="100%" stop-color="#ffd9e8" />
    </linearGradient>
  </defs>
  <rect width="64" height="64" rx="14" fill="url(#bg)" />
  <path
    d="M32 50c-.7 0-1.3-.2-1.8-.7l-13-12.1c-2.9-2.7-4.6-6.2-4.6-10.1 0-7 5.2-12.1 11.9-12.1 3.3 0 6.1 1.4 7.6 3.6 1.5-2.2 4.4-3.6 7.7-3.6 6.7 0 11.8 5.1 11.8 12.1 0 3.9-1.6 7.4-4.6 10.1L33.9 49.3c-.5.5-1.1.7-1.9.7z"
    fill="url(#heart)"
  />
</svg>
